<svg xmlns="http://www.w3.org/2000/svg" width="67.12" height="55.331" viewBox="0 0 67.12 55.331"><path d="M-24.974-2835.854H-39.436a2.976,2.976,0,0,0-2.977,2.977v21.426a2.976,2.976,0,0,0,2.977,2.977h14.462a2.978,2.978,0,0,1,1.674.515l19.024,12.94a2.976,2.976,0,0,0,4.651-2.461v-49.367a2.977,2.977,0,0,0-4.651-2.461l-19.024,12.94A2.978,2.978,0,0,1-24.974-2835.854Z" transform="translate(42.413 2849.83)"/><g transform="translate(51.197 6.035)"><path d="M1223.607-2694.856c.241.2.47.408.7.621.6.564,1.173,1.161,1.719,1.779q.635.719,1.222,1.479l-.538-.7a27.291,27.291,0,0,1,2.76,4.35q.371.734.692,1.491l-.347-.822a21.948,21.948,0,0,1,1.3,4.186q.131.651.22,1.31l-.123-.915a19.873,19.873,0,0,1,0,5.24l.123-.915a21.852,21.852,0,0,1-1.525,5.508l.347-.822a29.311,29.311,0,0,1-3.844,6.463l.538-.7a41.986,41.986,0,0,1-3.5,3.948,2.578,2.578,0,0,0-.711,1.107,2.591,2.591,0,0,0-.3,1.325,2.591,2.591,0,0,0,.3,1.326,2.579,2.579,0,0,0,.711,1.107,3.463,3.463,0,0,0,2.433,1.008,3.585,3.585,0,0,0,2.433-1.008,43.557,43.557,0,0,0,5.346-6.463,30.655,30.655,0,0,0,3.209-6.294,24.736,24.736,0,0,0,1.37-6.025,19.69,19.69,0,0,0-.041-4.724,25.227,25.227,0,0,0-1.118-5.094,29.438,29.438,0,0,0-1.949-4.421,27.294,27.294,0,0,0-1.914-3.012,37.845,37.845,0,0,0-2.386-2.978c-.473-.527-.966-1.038-1.479-1.526-.244-.232-.493-.46-.751-.676l-.034-.028a2.578,2.578,0,0,0-1.107-.711,2.593,2.593,0,0,0-1.326-.3,2.593,2.593,0,0,0-1.326.3,2.578,2.578,0,0,0-1.107.711,3.462,3.462,0,0,0-1.008,2.433l.123.915a3.435,3.435,0,0,0,.885,1.518Z" transform="translate(-1222.345 2700.732)"/></g><g transform="translate(45.195 16.543)"><path d="M1075.2-2435.272a8.77,8.77,0,0,1,1.014,1.006q.269.3.517.625l-.538-.7a11.3,11.3,0,0,1,1.46,2.467l-.347-.822a9.205,9.205,0,0,1,.647,2.334l-.123-.915a8.482,8.482,0,0,1,0,2.188l.123-.915a9.326,9.326,0,0,1-.65,2.354l.347-.822a12.492,12.492,0,0,1-1.6,2.693l.538-.7a18,18,0,0,1-1.5,1.692,3.552,3.552,0,0,0-1.008,2.433,2.591,2.591,0,0,0,.3,1.326,2.58,2.58,0,0,0,.711,1.107,3.463,3.463,0,0,0,2.433,1.008,3.582,3.582,0,0,0,2.433-1.008,21.18,21.18,0,0,0,2.569-3.133,15.135,15.135,0,0,0,1.555-3.134,12.577,12.577,0,0,0,.646-3.049,8.414,8.414,0,0,0-.013-2,13.026,13.026,0,0,0-.534-2.663,15.528,15.528,0,0,0-1.015-2.337,15.7,15.7,0,0,0-2.138-2.958,8.653,8.653,0,0,0-.963-.95,2.581,2.581,0,0,0-1.107-.711,2.593,2.593,0,0,0-1.326-.3,2.593,2.593,0,0,0-1.326.3,2.581,2.581,0,0,0-1.107.711,3.462,3.462,0,0,0-1.008,2.433l.123.915a3.436,3.436,0,0,0,.885,1.518Z" transform="translate(-1074.085 2441.148)"/></g></svg>